<svg xmlns="http://www.w3.org/2000/svg" width="300" height="115" fill="none">
  <path fill="#203483" d="M69.49 113.444c0 .588-.195.784-.586.784h-5.87a7.287 7.287 0 0 1-2.349-.392c-.782-.392-1.37-.979-1.37-1.763v-4.505c0-.392.196-.784.392-1.175.587-.784 1.76-1.176 3.326-1.176H64.6c.391 0 .587.196.587.588v.196c0 .392-.196.587-.587.587h-.979c-1.76 0-2.74.392-2.74.98v1.567h8.024c.391 0 .587.196.587.587 0 .196 0 .392-.196.588-.196.196-.196.196-.391.196H60.88v1.567c0 .588.783.979 2.152.979h5.87c.392-.195.588 0 .588.392ZM72.037 113.64c0 .392-.196.588-.587.588h-.587c-.196 0-.391-.196-.391-.588v-7.835c0-.392.195-.588.587-.588h.587c.195 0 .391.196.391.588v7.835ZM82.994 110.897c0 .392-.195.587-.391.587h-7.827c0 .98.783 1.567 2.348 1.567h.783c.391 0 .587.196.587.784 0 .392-.196.588-.587.588H75.95c-.783 0-1.566-.196-1.957-.588-.587-.392-.783-.979-.783-1.567v-2.546c0-.784.392-1.372 1.37-1.763a7.287 7.287 0 0 1 2.348-.392h2.936c.782 0 1.37.196 1.956.392.783.391 1.174.783 1.174 1.567v1.371Zm-1.565-.784v-.783c0-.588-.978-.784-3.13-.784h-1.175c-1.565 0-2.348.196-2.348.784v.783h6.653ZM94.146 113.637c0 .392-.196.588-.783.588h-5.87c-.978 0-1.957-.196-2.348-.392-.783-.392-1.174-.979-1.174-1.763v-2.742c0-1.371 1.174-2.155 3.326-2.155h6.262c.391 0 .587.196.587.588 0 .392-.196.588-.587.588h-6.066c-1.174 0-1.957.195-1.957.783v2.938c0 .588.783.98 2.153.98h5.87c.391 0 .587.196.587.587ZM100.41 107.959c0 .391-.196.587-.587.587h-2.544v5.093c0 .392-.196.588-.587.588h-.587c-.196 0-.391-.196-.391-.588v-5.093h-.587c-.392 0-.587-.196-.587-.587 0-.392.195-.588.587-.588h.587V106c0-.392.195-.588.587-.588h.587c.195 0 .391.196.391.588v1.371h2.544c.391-.196.587.196.587.588ZM106.083 107.96c0 .392-.195.588-.587.588h-.587c-1.174 0-1.761.391-1.761.979v4.309c0 .196-.195.392-.391.588h-.783c-.391 0-.587-.196-.587-.588v-4.309c0-1.567 1.37-2.155 4.109-2.155.392-.196.587 0 .587.588ZM109.02 106.784c0 .195-.196.391-.392.587-.196.196-.391.196-.783.196-.195 0-.587 0-.782-.196-.196-.196-.392-.392-.392-.587 0-.196.196-.392.392-.588.195-.196.391-.196.782-.196.196 0 .587 0 .783.196.196.196.392.392.392.588Zm-.196 6.855c0 .392-.196.588-.587.588h-.587c-.196 0-.392-.196-.392-.588v-5.288c0-.392.196-.588.587-.588h.587c.196 0 .392.196.392.588v5.288ZM120.174 113.637c0 .392-.196.588-.783.588h-5.87c-.979 0-1.957-.196-2.348-.392-.783-.392-1.174-.979-1.174-1.763v-2.742c0-1.371 1.174-2.155 3.326-2.155h6.262c.391 0 .587.196.587.588 0 .392-.196.588-.587.588h-6.066c-1.174 0-1.957.195-1.957.783v2.938c0 .588.783.98 2.152.98h5.871c.391 0 .587.196.587.587ZM123.109 106.784c0 .195-.196.391-.391.587-.196.196-.392.196-.783.196-.196 0-.587 0-.783-.196-.196-.196-.391-.392-.391-.587 0-.196.195-.392.391-.588.196-.196.391-.196.783-.196.195 0 .587 0 .783.196.195.196.391.392.391.588Zm-.196 6.855c0 .392-.195.588-.587.588h-.587c-.196 0-.391-.196-.391-.588v-5.288c0-.392.195-.588.587-.588h.587c.196 0 .391.196.391.588v5.288ZM129.37 107.959c0 .391-.196.587-.587.587h-2.544v5.093c0 .392-.196.588-.587.588h-.587c-.196 0-.391-.196-.391-.588v-5.093h-.587c-.392 0-.587-.196-.587-.587 0-.392.195-.588.587-.588h.587V106c0-.392.195-.588.587-.588h.587c.195 0 .391.196.391.588v1.371h2.544c.391-.196.587.196.587.588ZM140.131 110.897c0 .392-.196.587-.392.587h-7.827c0 .98.783 1.567 2.348 1.567h.783c.391 0 .587.196.587.784 0 .392-.196.588-.587.588h-1.957c-.783 0-1.565-.196-1.957-.588-.587-.392-.782-.979-.782-1.567v-2.546c0-.784.391-1.372 1.369-1.763a7.29 7.29 0 0 1 2.349-.392H137c.782 0 1.369.196 1.957.392.782.391 1.174.783 1.174 1.567v1.371Zm-1.566-.784v-.783c0-.588-.978-.784-3.131-.784h-1.174c-1.565 0-2.348.196-2.348.784v.783h6.653Zm-2.152-5.876-.979.979c-.587.588-.978.98-1.174.98-.195 0-.195.196-.391.196s-.196 0-.391-.196c-.196 0-.196-.196-.196-.196 0-.196 0-.196.196-.196l2.152-1.959h.196c.195 0 .195 0 .391.196.196-.196.391 0 .196.196.195 0 .195-.196 0 0ZM152.263 110.7c0 .391-.196.587-.587.587h-4.892c-.196 0-.392-.196-.587-.392v-.587c0-.391.195-.587.587-.587h4.892c.195 0 .391.196.587.392v.587ZM170.071 113.64c0 .392-.196.588-.587.588h-.783c-.196 0-.391-.196-.391-.588v-3.134h-8.023v3.134c0 .392-.196.588-.587.588h-.783c-.195 0-.391-.196-.391-.588v-7.835c0-.392.196-.392.391-.588h.783c.391 0 .587.196.587.588v3.33h8.023v-3.33c0-.392.195-.392.391-.588h.783c.391 0 .587.196.587.588v7.835ZM183.181 106.196l-5.283 7.639a1.076 1.076 0 0 1-.978.588c-.392 0-.783-.196-.979-.588l-5.283-7.639c-.196-.196-.196-.392-.196-.392 0-.392.196-.392.783-.392.391 0 .587 0 .783.196l4.892 7.052 4.892-7.052c.195-.196.391-.196.782-.196.587 0 .783.196.783.392 0 0-.196.196-.196.392ZM195.704 113.443v.196c0 .196 0 .391-.196.587-.196.196-.391.196-.587.196-.392 0-.587-.196-.783-.392l-1.37-2.154h-6.848l-1.37 2.154c-.196.196-.391.392-.587.392h-.391c-.392-.196-.392-.392-.392-.587v-.196l5.283-8.031c.196-.392.588-.392.979-.588.391 0 .587 0 .783.392v.196l5.479 7.835Zm-4.11-2.938-2.543-3.722-2.544 3.722h5.087ZM206.466 106.001c0 .392-.195.587-.587.587h-5.87c-1.37 0-2.153.196-2.153.784v4.505c0 .588.783.98 2.349.98h5.674c.392 0 .587.195.587.587 0 .392-.195.588-.587.588H198.835c-.392 0-.783-.196-1.174-.392-.392-.196-.783-.392-.979-.783-.195-.196-.391-.588-.391-1.176v-4.505c0-.588.196-.979.783-1.371.391-.392.978-.588 1.565-.588h7.24c.196 0 .392 0 .392.196.195.196.195.392.195.588ZM218.794 110.7c0 .391-.196.587-.587.587h-4.892c-.196 0-.391-.196-.587-.392v-.587c0-.391.196-.587.587-.587h4.892c.196 0 .391.196.587.392v.587ZM235.427 112.072c0 .392 0 .783-.196 1.175-.391.784-1.565 1.176-3.718 1.176h-5.674c-.392 0-.588-.196-.588-.588v-.588c0-.196.196-.196.392-.196h5.674c1.566 0 2.349-.196 2.349-.783v-.784c0-.587-.783-.783-2.153-.979-2.544 0-3.913-.196-4.109-.196-1.565-.196-2.153-.979-2.153-1.959v-.587c0-1.176.588-1.763 1.762-2.155.587-.196 1.565-.196 3.13-.196.392 0 .587.196.587.588v.196c0 .391-.195.587-.587.587h-.782c-1.566 0-2.348.392-2.348.98v.391c0 .392.391.588.978.784H231.513c.979 0 1.761.196 2.544.392.978.391 1.37.979 1.37 1.763v.979ZM246.186 110.897c0 .392-.195.587-.391.587h-7.827c0 .98.782 1.567 2.348 1.567h.783c.391 0 .587.196.587.784 0 .392-.196.588-.587.588h-1.957c-.783 0-1.566-.196-1.957-.588-.587-.392-.783-.979-.783-1.567v-2.546c0-.784.392-1.372 1.37-1.763a7.288 7.288 0 0 1 2.348-.392h2.935c.783 0 1.37.196 1.957.392.783.391 1.174.783 1.174 1.567v1.371Zm-1.37-.784v-.783c0-.588-.978-.784-3.13-.784h-1.174c-1.566 0-2.349.196-2.349.784v.783h6.653Zm-2.152-5.876-.978.979c-.587.588-.979.98-1.174.98-.196 0-.196.196-.392.196-.195 0-.195 0-.391-.196-.196 0-.196-.196-.196-.196 0-.196 0-.196.196-.196l2.152-1.959h.196c.196 0 .196 0 .391.196.196-.196.196 0 .196.196ZM257.341 113.637c0 .392-.195.588-.782.588h-5.871c-.978 0-1.957-.196-2.348-.392-.783-.392-1.174-.979-1.174-1.763v-2.742c0-1.371 1.174-2.155 3.327-2.155h6.261c.392 0 .587.196.587.588 0 .392-.195.588-.587.588h-6.066c-1.174 0-1.957.195-1.957.783v2.938c0 .588.783.98 2.153.98h5.87c.392 0 .587.196.587.587ZM268.495 112.072c0 1.371-1.565 2.155-4.5 2.155H262.429c-2.544 0-3.718-.784-3.718-2.155v-4.505c0-.392.196-.588.587-.588h.587c.196 0 .392.196.392.588v4.505c0 .588.783.784 2.152.784h2.348c1.37 0 2.153-.196 2.153-.784v-4.505c0-.196.196-.392.391-.588h.587c.392 0 .587.196.587.588v4.505ZM274.171 107.96c0 .392-.195.588-.587.588h-.587c-1.174 0-1.761.391-1.761.979v4.309c0 .196-.195.392-.391.588h-.783c-.391 0-.587-.196-.587-.588v-4.309c0-1.567 1.37-2.155 4.109-2.155.392-.196.587 0 .587.588ZM277.107 106.784c0 .195-.196.391-.391.587-.196.196-.392.196-.783.196-.196 0-.587 0-.783-.196-.196-.196-.391-.392-.391-.587 0-.196.195-.392.391-.588.196-.196.392-.196.783-.196.196 0 .587 0 .783.196.195.196.391.392.391.588Zm-.196 6.855c0 .392-.195.588-.587.588h-.587c-.196 0-.391-.196-.391-.588v-5.288c0-.392.196-.588.587-.588h.587c.196 0 .391.196.391.588v5.288ZM283.369 107.959c0 .391-.195.587-.587.587h-2.543v5.093c0 .392-.196.588-.588.588h-.587c-.195 0-.391-.196-.391-.588v-5.093h-.587c-.391 0-.587-.196-.587-.587 0-.392.196-.588.587-.588h.587V106c0-.392.196-.588.587-.588h.587c.196 0 .392.196.392.588v1.371h2.543c.392-.196.587.196.587.588ZM294.129 110.897c0 .392-.196.587-.392.587h-7.827c0 .98.783 1.567 2.348 1.567h.783c.391 0 .587.196.587.784 0 .392-.196.588-.587.588h-1.957c-.782 0-1.565-.196-1.957-.588-.587-.392-.782-.979-.782-1.567v-2.546c0-.784.391-1.372 1.369-1.763a7.295 7.295 0 0 1 2.349-.392h2.935c.782 0 1.37.196 1.957.392.782.391 1.174.783 1.174 1.567v1.371Zm-1.566-.784v-.783c0-.588-.978-.784-3.131-.784h-1.174c-1.565 0-2.348.196-2.348.784v.783h6.653Zm-2.152-5.876-.979.979c-.587.588-.978.98-1.174.98-.195 0-.195.196-.391.196s-.196 0-.391-.196c-.196 0-.196-.196-.196-.196 0-.196 0-.196.196-.196l2.152-1.959h.196c.195 0 .195 0 .391.196.196-.196.391 0 .196.196.195 0 .195-.196 0 0Z"/>
  <path fill="#F18515" d="M93.367 9.628c0 .392-.196.588-.588.588h-6.065a6.62 6.62 0 0 1-1.566-.588c-.391-.391-.587-.783-.587-1.37V3.163c0-.391.196-.587.587-.587h.587c.196 0 .391.196.391.391v5.093c0 .392.392.588.979.784h5.87c.196 0 .392 0 .392.196-.196.196 0 .391 0 .587ZM102.758 9.435c0 .392-.196.588-.587.588h-5.088c-.782 0-1.37-.196-1.956-.392-.783-.391-1.174-.783-1.174-1.567V4.343c0-.392.195-.784.391-.98.587-.587 1.565-.98 2.935-.98h1.37c.391 0 .391.197.391.588v.196c0 .392-.195.588-.391.588h-.978c-1.566 0-2.349.196-2.349.783V5.91h6.849c.391 0 .587.195.587.587 0 .196 0 .392-.196.392-.195.196-.195.196-.391.196h-6.849V8.26c0 .588.587.784 1.761.784h4.892c.783-.196.783 0 .783.391ZM112.345 8.064c0 .392 0 .784-.196.98-.391.587-1.369.979-3.13.979h-4.892c-.392 0-.392-.196-.392-.588v-.391c0-.196.196-.196.392-.196h4.892c1.369 0 1.956-.196 1.956-.784v-.587c0-.392-.587-.784-1.956-.784-2.153 0-3.327-.196-3.523-.196-1.174-.196-1.956-.783-1.956-1.763v-.391c0-.98.587-1.567 1.565-1.763.391-.196 1.37-.196 2.544-.196.391 0 .587.196.587.587v.196c0 .392-.196.588-.587.588h-.587c-1.37 0-2.153.196-2.153.783v.588c0 .392.196.588.783.588H108.823c.783 0 1.565.196 2.152.391.783.392 1.174.784 1.174 1.567v.392h.196ZM124.871 2.968c0 .392-.196.588-.587.588h-3.131v6.072c0 .392-.196.588-.392.588h-.587c-.195 0-.195-.196-.195-.392V3.752h-3.131c-.392 0-.587-.196-.587-.588v-.391c0-.196.195-.196.391-.196h7.632c.195 0 .391 0 .391.196.196-.196.196 0 .196.195ZM134.457 9.435c0 .392-.195.588-.587.588h-5.087c-.783 0-1.37-.196-1.957-.392-.783-.391-1.174-.783-1.174-1.567V4.343a1.5 1.5 0 0 1 .391-.98c.587-.587 1.566-.98 2.935-.98h1.37c.391 0 .391.197.391.588v.196c0 .392-.195.588-.391.588h-.978c-1.566 0-2.348.196-2.348.783V5.91h6.848c.392 0 .587.195.587.587 0 .196 0 .392-.195.392-.196.196-.196.196-.392.196h-6.848V8.26c0 .588.587.784 1.761.784h4.892c.587-.196.782 0 .782.391ZM144.24 2.971c0 .392-.196.588-.587.588h-4.892c-1.174 0-1.761.196-1.761.784v3.721c0 .588.587.784 1.956.784h4.697c.391 0 .587.196.587.587 0 .392-.196.588-.587.588h-6.066c-.392 0-.587-.196-.979-.392a2.692 2.692 0 0 1-.782-.587c-.196-.196-.196-.588-.196-.98V4.147c0-.392.196-.98.587-1.176a9.523 9.523 0 0 1 1.37-.587H143.848c.196 0 .392 0 .392.196v.391ZM154.809 9.63c0 .391-.196.587-.587.587h-.587c-.196 0-.196-.196-.196-.392V7.083h-6.849v2.742c0 .392-.195.588-.587.588h-.587c-.195 0-.195-.196-.195-.392v-6.66c0-.195 0-.391.195-.391h.587c.392 0 .587.196.587.587V6.3h6.849V3.557c0-.196 0-.391.196-.391h.587c.391 0 .587.195.587.587V9.63ZM165.179 9.236c0 .587-.196.783-.783.783h-.195c-.196 0-.392-.196-.587-.392l-6.458-5.484v5.484c0 .196 0 .392-.195.392h-.587c-.392 0-.587-.196-.587-.587V2.576c0-.196.195-.196.391-.392h.391c.392 0 .587.196.979.392l6.457 5.484V2.772c0-.196.196-.392.391-.392h.587c.392 0 .588.196.588.588v6.268h-.392ZM167.528 9.627c0 .391-.196.587-.587.587h-.587c-.196 0-.196-.196-.196-.391v-6.66c0-.196 0-.392.196-.392h.587c.391 0 .587.196.587.588v6.268ZM177.897 8.064c0 .784-.391 1.371-1.174 1.763.196 0 .392.196.587.392.196 0 .196.196.196.392s-.196.391-.391.587h-.587l-1.566-.783h-2.739c-2.348 0-3.718-.588-3.718-1.959V4.343c0-.784.391-1.372 1.174-1.763.391-.196 1.37-.196 2.348-.196h2.153c1.174 0 1.956 0 2.348.196.782.196 1.174.783 1.174 1.763v3.721h.195Zm-1.369 0V4.343c0-.392-.392-.588-.979-.784h-4.892c-.587.196-.978.392-.978.784v3.721c0 .392.391.588.978.784h4.892c.783-.196.979-.392.979-.784ZM188.464 7.865c0 1.37-1.369 2.154-4.109 2.154h-1.37c-1.956 0-3.13-.392-3.522-1.175-.195-.196-.195-.588-.195-.98V2.773c0-.392.195-.588.587-.588h.587c.195 0 .391.196.391.392v4.897c0 .392.391.783.978.98.392 0 .783.195 1.566.195h1.957c.587 0 1.174 0 1.565-.196.587-.196.978-.392.978-.98V2.577c0-.196.196-.392.392-.392h.587c.391 0 .587.196.587.588v5.093h-.979ZM198.054 9.435c0 .392-.196.588-.587.588h-4.892c-.783 0-1.37-.196-1.957-.392-.783-.391-1.174-.783-1.174-1.567V4.343a1.5 1.5 0 0 1 .391-.98c.587-.587 1.566-.98 2.935-.98h1.37c.391 0 .391.197.391.588v.196c0 .392-.195.588-.391.588h-.978c-1.566 0-2.348.196-2.348.783V5.91h6.848c.392 0 .587.195.587.587 0 .196 0 .392-.195.392-.196.196-.196.196-.392.196h-6.848V8.26c0 .588.587.784 1.761.784h4.892c.391-.196.587 0 .587.391ZM207.641 8.064c0 .392 0 .784-.195.98-.392.587-1.37.979-3.131.979h-4.892c-.391 0-.391-.196-.391-.588v-.391c0-.196.195-.196.391-.196h4.892c1.37 0 1.957-.196 1.957-.784v-.587c0-.392-.587-.784-1.957-.784-2.153 0-3.327-.196-3.522-.196-1.174-.196-1.957-.783-1.957-1.763v-.391c0-.98.587-1.567 1.565-1.763.392-.196 1.37-.196 2.544-.196.392 0 .587.196.587.587v.196c0 .392-.195.588-.587.588h-.587c-1.37 0-2.152.196-2.152.783v.588c0 .392.195.588.782.588H204.119c.783 0 1.566.196 2.153.391.782.392 1.174.784 1.174 1.567v.392h.195ZM221.926 8.064c0 .392 0 .784-.196.98-.391.587-1.37.979-3.131.979h-4.892c-.391 0-.391-.196-.391-.588v-.391c0-.196.195-.196.391-.196h4.892c1.37 0 1.957-.196 1.957-.784v-.587c0-.392-.587-.784-1.957-.784-2.152 0-3.326-.196-3.522-.196-1.174-.196-1.957-.783-1.957-1.763v-.391c0-.98.587-1.567 1.566-1.763.391-.196 1.369-.196 2.543-.196.392 0 .587.196.587.587v.196c0 .392-.195.588-.587.588h-.587c-1.369 0-2.152.196-2.152.783v.588c0 .392.196.588.783.588h3.13c.783 0 1.566.196 2.153.391.783.392 1.174.784 1.174 1.567v.392h.196ZM232.296 5.322c0 .783-.392 1.371-1.174 1.763-.588.196-1.37.392-2.153.392h-4.892v2.35c0 .196-.196.392-.391.392h-.587c-.392 0-.587-.196-.587-.588v-6.66c0-.391.195-.587.587-.587h5.87c.783 0 1.37.196 1.957.392.783.391 1.174.783 1.174 1.37v1.176h.196Zm-1.37 0v-.98c0-.391-.587-.587-1.761-.587h-4.892v2.742h4.892c1.174-.392 1.761-.587 1.761-1.175ZM241.883 9.432c0 .392-.196.588-.587.588h-5.088c-.783 0-1.37-.196-1.957-.392-.782-.391-1.174-.783-1.174-1.567V4.34a1.5 1.5 0 0 1 .391-.98c.588-.587 1.566-.98 2.936-.98h1.369c.392 0 .587.197.587.588v.196c0 .392-.195.588-.587.588h-.978c-1.565 0-2.348.196-2.348.784v1.37h6.849c.391 0 .587.197.587.588 0 .196 0 .392-.196.392-.196.196-.196.196-.391.196h-6.653v1.175c0 .588.587.784 1.761.784h4.892c.587-.196.587 0 .587.391ZM238.36.226s-.391.392-.782.98l-.979.979-.195.196c-.196 0-.196 0-.392-.196l-.195-.196s0-.196.195-.196L237.773.03h.196c.196 0 .196 0 .391.196 0-.196 0-.392 0 0ZM251.67 2.971c0 .392-.196.588-.587.588h-4.892c-1.174 0-1.761.196-1.761.784v3.721c0 .588.587.784 1.957.784h4.696c.391 0 .587.196.587.587 0 .392-.196.588-.587.588h-6.066c-.392 0-.587-.196-.979-.392a2.692 2.692 0 0 1-.782-.587c-.196-.196-.196-.588-.196-.98V4.147c0-.392.196-.98.587-1.176a9.523 9.523 0 0 1 1.37-.587H251.279c.195 0 .391 0 .391.196v.391ZM254.014 9.627c0 .391-.195.587-.587.587h-.587c-.195 0-.195-.196-.195-.391v-6.66c0-.196 0-.392.195-.392h.587c.392 0 .587.196.587.588v6.268ZM265.363 9.43c0 .391 0 .587-.195.587-.196.196-.392.196-.392.196-.195 0-.391-.196-.587-.392l-1.174-1.763h-5.87l-1.174 1.763c-.196.196-.196.392-.391.392h-.392c-.195-.196-.391-.196-.391-.392v-.196l4.5-6.855c.196-.196.392-.392.783-.392.392 0 .587 0 .783.196v.196l4.5 6.66Zm-3.326-2.547-2.153-3.134-2.152 3.134h4.305ZM274.953 9.628c0 .392-.195.588-.587.588H268.3a6.623 6.623 0 0 1-1.565-.588c-.391-.391-.587-.783-.587-1.37V3.163c0-.391.196-.587.587-.587h.587c.196 0 .391.196.391.391v5.093c0 .392.392.588.979.784h5.87c.196 0 .391 0 .391.196v.587ZM284.538 9.43c0 .391-.195.587-.587.587h-5.087c-.783 0-1.37-.196-1.957-.392-.783-.391-1.174-.783-1.174-1.567V4.337a1.5 1.5 0 0 1 .391-.98c.587-.587 1.566-.98 2.935-.98h1.37c.392 0 .392.197.392.589v.195c0 .392-.196.588-.392.588h-.978c-1.566 0-2.348.196-2.348.784v1.37h6.848c.392 0 .587.197.587.588 0 .196 0 .392-.195.392-.196.196-.196.196-.392.196h-6.848v1.175c0 .588.587.784 1.761.784h4.892c.587-.196.782 0 .782.392ZM294.128 8.058c0 .392 0 .784-.195.98-.392.587-1.37.98-3.131.98h-4.892c-.392 0-.392-.197-.392-.588v-.392c0-.196.196-.196.392-.196h4.892c1.369 0 1.957-.196 1.957-.784v-.587c0-.392-.588-.784-1.957-.784-2.153 0-3.327-.196-3.522-.196-1.175-.196-1.957-.783-1.957-1.763v-.391c0-.98.587-1.567 1.565-1.763.392-.196 1.37-.196 2.544-.196.391 0 .587.196.587.588v.195c0 .392-.196.588-.587.588h-.587c-1.37 0-2.152.196-2.152.784v.587c0 .392.195.588.782.588H290.606c.783 0 1.565.196 2.153.392.782.391 1.174.783 1.174 1.567v.391h.195Z"/>
  <path fill="#EDEDED" d="M46.986 90.525c21.916-.196 39.723-18.021 39.723-40.155h-3.131c.195 20.371-16.242 37.02-36.592 37.02-20.35.197-36.983-16.257-36.983-36.629-.196-20.37 16.241-37.02 36.592-37.02v-3.135c-21.916.196-39.723 18.021-39.723 40.155.196 22.135 18.198 39.96 40.114 39.764Z"/>
  <path fill="#EDEDED" d="m13.918 84.258 2.153-2.155C-1.15 65.062-1.344 37.247 15.68 20.01l-2.153-2.155C-4.67 36.267-4.475 66.041 13.92 84.258Z"/>
  <path fill="#203483" d="M63.232 22.164c-5.088-2.938-10.763-4.309-16.242-4.309-11.544 0-22.698 5.876-28.764 16.65-9.001 15.67-3.522 35.845 12.328 44.66 15.85 9.01 36.004 3.526 45.005-12.34 9.002-15.67 3.523-35.65-12.327-44.66Z"/>
  <path fill="#F18515" d="M79.863 51.544V49.39c-12.72.391-30.135 0-39.919-4.506 0 0 8.219 8.423 39.919 6.66ZM40.924 52.328s8.023 8.03 37.962 6.855l.587-2.35c-12.72.392-29.156 0-38.549-4.505Z"/>
  <path fill="#fff" d="M40.338 48.805s8.218 8.227 39.135 6.66c.196-.784.196-1.568.196-2.351-12.523.588-29.547 0-39.331-4.31Z"/>
  <path fill="#F18515" d="M300 57.029H77.906v2.154H300V57.03ZM77.906 49.392v2.155H300v-2.155H77.906Z"/>
  <path fill="#203483" d="M185.528 42.34h37.179s6.849.587 7.044 3.525v8.619s-1.369 5.093-8.609 5.289h-35.614V42.339Zm57.138 29.773v-24.68s2.74-5.094 10.567-5.094h23.872s7.828 1.372 8.023 4.897v24.681s2.153 4.31-12.327 5.876h-18.394s-11.154 0-11.741-5.68Zm9.393-37.413c-8.023.784-12.524 3.33-15.067 5.877-4.501-5.485-15.068-5.877-15.068-5.877h-42.853c-2.153 0-2.544 2.155-2.544 2.155v26.64c-2.544-1.764-6.457-3.33-12.328-3.918h-23.09s-7.044-.588-7.24-3.526c-.195-2.938 0-9.01 0-9.01s1.37-4.897 11.741-4.897h7.436s1.37-.196 1.37-1.96v-2.546s-.196-2.742-2.544-2.742H85.733c-1.174 0-1.957.784-1.957 1.959v3.722c0 .979.978 1.958 1.957 1.958h2.739l18.002.196s.196 38.392.196 40.351c0 1.763 1.957 1.959 1.957 1.959h5.283c1.566 0 1.566-2.546 1.566-2.546V42.144h10.175c-.783 1.37-.978 2.546-.978 3.134V58.4s2.739 8.032 13.306 8.032c10.566 0 24.655.783 24.655.783s9.98-.588 9.98 4.897c0 5.876-10.176 5.289-10.176 5.289h-35.613s-1.957.391-1.957 3.917c0 3.722 3.131 3.33 3.131 3.33h55.181c1.957-.196 2.153-1.959 2.153-1.959l.195-15.67 33.461-.587c7.24 0 11.937-1.372 14.872-3.33v10.185c2.739 10.578 16.828 11.165 16.828 11.165h26.612c18.394-1.567 16.828-12.144 16.828-12.144V47.04c-.587-12.145-17.219-12.145-17.219-12.145h-24.851V34.7Z"/>
  <path fill="#fff" d="M299.216 53.308H78.296v2.154h220.92v-2.154Z"/>
</svg>
