<svg xmlns="http://www.w3.org/2000/svg" width="300" height="97" fill="none">
  <path fill="#203483" d="M145.611 95.283c0 .394-.131.525-.394.525h-3.931c-.656 0-1.18-.131-1.573-.263-.524-.262-.918-.655-.918-1.179v-3.014c0-.263.131-.525.263-.787.393-.524 1.179-.786 2.228-.786h1.048c.262 0 .393.13.393.393v.131c0 .262-.131.393-.393.393h-.655c-1.18 0-1.835.262-1.835.656V92.4h5.373c.263 0 .394.131.394.393 0 .131 0 .262-.131.393-.132.131-.132.131-.263.131h-5.373v1.049c0 .393.524.655 1.442.655h3.931c.263-.13.394 0 .394.262ZM147.314 95.415c0 .262-.131.393-.393.393h-.393c-.131 0-.262-.131-.262-.394v-5.242c0-.262.131-.393.393-.393h.393c.131 0 .262.13.262.393v5.243ZM154.653 93.578c0 .262-.131.393-.262.393h-5.243c0 .655.524 1.048 1.573 1.048h.524c.262 0 .393.131.393.525 0 .262-.131.393-.393.393h-1.311c-.524 0-1.048-.131-1.31-.393-.393-.263-.524-.656-.524-1.049v-1.704c0-.524.262-.917.917-1.18a4.887 4.887 0 0 1 1.573-.261h1.966c.524 0 .917.13 1.31.262.525.262.787.524.787 1.048v.918Zm-1.049-.525v-.524c0-.393-.655-.524-2.097-.524h-.786c-1.049 0-1.573.131-1.573.524v.524h4.456ZM162.123 95.412c0 .262-.131.393-.524.393h-3.932c-.656 0-1.311-.13-1.573-.262-.524-.262-.786-.655-.786-1.18V92.53c0-.918.786-1.442 2.228-1.442h4.194c.262 0 .393.131.393.393s-.131.393-.393.393h-4.063c-.787 0-1.311.131-1.311.524v1.966c0 .394.524.656 1.442.656h3.932c.262 0 .393.13.393.393ZM166.321 91.614c0 .262-.131.393-.393.393h-1.704v3.408c0 .262-.131.393-.393.393h-.393c-.131 0-.262-.131-.262-.393v-3.408h-.394c-.262 0-.393-.13-.393-.393 0-.262.131-.393.393-.393h.394v-.918c0-.262.131-.393.393-.393h.393c.131 0 .262.131.262.393v.918h1.704c.262-.131.393.13.393.393ZM170.121 91.613c0 .262-.131.393-.393.393h-.393c-.787 0-1.18.263-1.18.656v2.883c0 .131-.131.262-.262.393h-.524c-.262 0-.393-.13-.393-.393v-2.883c0-1.049.917-1.442 2.752-1.442.262-.131.393 0 .393.393ZM172.084 90.828c0 .132-.131.263-.262.394-.131.13-.262.13-.524.13-.131 0-.393 0-.524-.13-.131-.131-.262-.262-.262-.394 0-.13.131-.262.262-.393.131-.13.262-.13.524-.13.131 0 .393 0 .524.13.131.131.262.262.262.393Zm-.131 4.588c0 .262-.131.393-.393.393h-.393c-.131 0-.262-.131-.262-.393v-3.54c0-.261.131-.392.393-.392h.393c.131 0 .262.13.262.393v3.539ZM179.555 95.412c0 .262-.131.393-.524.393h-3.932c-.655 0-1.311-.13-1.573-.262-.524-.262-.786-.655-.786-1.18V92.53c0-.918.786-1.442 2.228-1.442h4.194c.262 0 .393.131.393.393s-.131.393-.393.393h-4.063c-.787 0-1.311.131-1.311.524v1.966c0 .394.524.656 1.442.656h3.932c.262 0 .393.13.393.393ZM181.525 90.828c0 .132-.131.263-.262.394-.131.13-.262.13-.524.13-.132 0-.394 0-.525-.13-.131-.131-.262-.262-.262-.394 0-.13.131-.262.262-.393.131-.13.262-.13.525-.13.131 0 .393 0 .524.13.131.131.262.262.262.393Zm-.131 4.588c0 .262-.131.393-.393.393h-.394c-.131 0-.262-.131-.262-.393v-3.54c0-.261.131-.392.394-.392h.393c.131 0 .262.13.262.393v3.539ZM185.717 91.614c0 .262-.131.393-.393.393h-1.704v3.408c0 .262-.131.393-.393.393h-.393c-.131 0-.262-.131-.262-.393v-3.408h-.394c-.262 0-.393-.13-.393-.393 0-.262.131-.393.393-.393h.394v-.918c0-.262.131-.393.393-.393h.393c.131 0 .262.131.262.393v.918h1.704c.262-.131.393.13.393.393ZM192.925 93.578c0 .262-.131.393-.262.393h-5.243c0 .655.524 1.048 1.573 1.048h.524c.262 0 .393.131.393.524 0 .263-.131.394-.393.394h-1.311c-.524 0-1.048-.131-1.31-.394-.393-.262-.524-.655-.524-1.048v-1.704c0-.524.262-.917.917-1.18a4.884 4.884 0 0 1 1.573-.261h1.966c.524 0 .917.13 1.31.262.525.262.787.524.787 1.048v.918Zm-1.049-.525v-.524c0-.393-.655-.524-2.097-.524h-.786c-1.049 0-1.573.13-1.573.524v.524h4.456Zm-1.442-3.931-.655.655c-.393.393-.655.655-.786.655s-.131.131-.262.131-.131 0-.262-.13c-.131 0-.131-.132-.131-.132 0-.131 0-.131.131-.131l1.441-1.31h.131c.131 0 .131 0 .262.13.131-.13.263 0 .131.132.132 0 .132-.132 0 0ZM201.052 93.45c0 .261-.131.392-.393.392h-3.277c-.131 0-.262-.13-.393-.262v-.393c0-.262.131-.393.393-.393h3.277c.131 0 .262.131.393.262v.393ZM212.976 95.415c0 .262-.131.393-.393.393h-.525c-.131 0-.262-.131-.262-.394v-2.097h-5.373v2.098c0 .262-.131.393-.393.393h-.525c-.131 0-.262-.131-.262-.394v-5.242c0-.262.131-.262.262-.393h.525c.262 0 .393.13.393.393V92.4h5.373v-2.228c0-.262.131-.262.262-.393h.525c.262 0 .393.13.393.393v5.243ZM221.757 90.434l-3.538 5.112a.722.722 0 0 1-.656.393.72.72 0 0 1-.655-.393l-3.539-5.112c-.131-.13-.131-.262-.131-.262 0-.262.131-.262.525-.262.262 0 .393 0 .524.131l3.276 4.718 3.277-4.718c.131-.13.262-.13.524-.13.393 0 .524.13.524.261 0 0-.131.131-.131.262ZM230.147 95.283v.131c0 .131 0 .262-.131.393s-.262.131-.393.131c-.262 0-.393-.13-.524-.262l-.918-1.441h-4.587l-.917 1.441c-.131.131-.262.262-.393.262h-.263c-.262-.13-.262-.262-.262-.393v-.13l3.539-5.374c.131-.263.393-.263.655-.394.262 0 .393 0 .525.263v.13l3.669 5.243Zm-2.752-1.966-1.704-2.49-1.704 2.49h3.408ZM237.354 90.303c0 .262-.131.393-.393.393h-3.932c-.917 0-1.441.131-1.441.525v3.014c0 .393.524.655 1.572.655h3.801c.262 0 .393.131.393.393 0 .263-.131.394-.393.394h-4.718c-.262 0-.524-.132-.786-.263-.263-.13-.525-.262-.656-.524-.131-.13-.262-.393-.262-.786v-3.015c0-.393.131-.655.524-.917.262-.262.656-.393 1.049-.393h4.849c.131 0 .262 0 .262.13.131.132.131.263.131.394ZM245.613 93.45c0 .261-.131.392-.393.392h-3.277c-.131 0-.262-.13-.393-.262v-.393c0-.262.131-.393.393-.393h3.277c.131 0 .262.131.393.262v.393ZM256.75 94.366c0 .262 0 .525-.131.787-.262.524-1.048.786-2.49.786h-3.801c-.262 0-.393-.131-.393-.393v-.393c0-.131.131-.131.262-.131h3.801c1.048 0 1.573-.132 1.573-.525v-.524c0-.393-.525-.524-1.442-.655-1.704 0-2.621-.131-2.752-.131-1.049-.131-1.442-.656-1.442-1.31v-.394c0-.787.393-1.18 1.18-1.442.393-.13 1.048-.13 2.097-.13.262 0 .393.13.393.392v.131c0 .263-.131.394-.393.394h-.525c-1.048 0-1.572.262-1.572.655v.262c0 .262.262.393.655.524h2.359c.655 0 1.18.131 1.704.262.655.262.917.656.917 1.18v.655ZM263.958 93.578c0 .262-.131.393-.262.393h-5.242c0 .655.524 1.048 1.573 1.048h.524c.262 0 .393.131.393.524 0 .263-.131.394-.393.394h-1.311c-.524 0-1.048-.131-1.31-.394-.394-.262-.525-.655-.525-1.048v-1.704c0-.524.262-.917.918-1.18a4.883 4.883 0 0 1 1.572-.261h1.966c.525 0 .918.13 1.311.262.524.262.786.524.786 1.048v.918Zm-.917-.525v-.524c0-.393-.655-.524-2.097-.524h-.786c-1.049 0-1.573.13-1.573.524v.524h4.456Zm-1.442-3.931-.655.655c-.393.393-.655.655-.786.655s-.131.131-.263.131c-.131 0-.131 0-.262-.13-.131 0-.131-.132-.131-.132 0-.131 0-.131.131-.131l1.442-1.31h.131c.131 0 .131 0 .262.13.131-.13.131 0 .131.132ZM271.429 95.412c0 .262-.131.393-.524.393h-3.932c-.655 0-1.311-.13-1.573-.262-.524-.262-.786-.655-.786-1.18V92.53c0-.918.786-1.442 2.228-1.442h4.194c.262 0 .393.131.393.393s-.131.393-.393.393h-4.063c-.786 0-1.311.131-1.311.524v1.966c0 .394.525.656 1.442.656h3.932c.262 0 .393.13.393.393ZM278.901 94.363c0 .918-1.049 1.442-3.015 1.442h-1.048c-1.704 0-2.49-.524-2.49-1.442V91.35c0-.262.131-.393.393-.393h.393c.131 0 .262.13.262.393v3.014c0 .393.524.524 1.442.524h1.573c.917 0 1.441-.13 1.441-.524V91.35c0-.131.131-.262.262-.393h.394c.262 0 .393.13.393.393v3.014ZM282.701 91.613c0 .262-.131.393-.394.393h-.393c-.786 0-1.179.263-1.179.656v2.883c0 .131-.131.262-.262.393h-.525c-.262 0-.393-.13-.393-.393v-2.883c0-1.049.918-1.442 2.752-1.442.263-.131.394 0 .394.393ZM284.667 90.828c0 .132-.131.263-.262.394-.131.13-.262.13-.524.13-.131 0-.393 0-.524-.13-.131-.131-.262-.262-.262-.394 0-.13.131-.262.262-.393.131-.13.262-.13.524-.13.131 0 .393 0 .524.13.131.131.262.262.262.393Zm-.131 4.588c0 .262-.131.393-.393.393h-.393c-.131 0-.262-.131-.262-.393v-3.54c0-.261.131-.392.393-.392h.393c.131 0 .262.13.262.393v3.539ZM288.861 91.614c0 .262-.131.393-.394.393h-1.703v3.408c0 .262-.131.393-.394.393h-.393c-.131 0-.262-.131-.262-.393v-3.408h-.393c-.262 0-.393-.13-.393-.393 0-.262.131-.393.393-.393h.393v-.918c0-.262.131-.393.393-.393h.393c.132 0 .263.131.263.393v.918h1.703c.263-.131.394.13.394.393ZM296.069 93.578c0 .262-.131.393-.262.393h-5.243c0 .655.524 1.048 1.573 1.048h.524c.262 0 .393.131.393.524 0 .263-.131.394-.393.394h-1.311c-.524 0-1.048-.131-1.31-.394-.393-.262-.524-.655-.524-1.048v-1.704c0-.524.262-.917.917-1.18a4.884 4.884 0 0 1 1.573-.261h1.966c.524 0 .917.13 1.31.262.525.262.787.524.787 1.048v.918Zm-1.049-.525v-.524c0-.393-.655-.524-2.097-.524h-.786c-1.049 0-1.573.13-1.573.524v.524h4.456Zm-1.441-3.931-.656.655c-.393.393-.655.655-.786.655s-.131.131-.262.131-.131 0-.262-.13c-.131 0-.131-.132-.131-.132 0-.131 0-.131.131-.131l1.441-1.31h.131c.131 0 .131 0 .262.13.132-.13.263 0 .132.132.131 0 .131-.132 0 0Z"/>
  <path fill="#F18515" d="M161.598 25.816c0 .262-.131.393-.393.393h-4.063a4.445 4.445 0 0 1-1.049-.393c-.262-.262-.393-.524-.393-.917V21.49c0-.262.131-.393.393-.393h.394c.131 0 .262.131.262.262v3.408c0 .262.262.393.655.524H161.336c.131 0 .262 0 .262.131-.131.131 0 .262 0 .393ZM167.89 25.69c0 .262-.131.394-.393.394h-3.407c-.525 0-.918-.131-1.311-.263-.524-.262-.786-.524-.786-1.048v-2.49c0-.262.131-.524.262-.655.393-.394 1.048-.656 1.966-.656h.917c.262 0 .262.131.262.393v.131c0 .263-.131.394-.262.394h-.655c-1.049 0-1.573.13-1.573.524v.917h4.587c.262 0 .393.131.393.393 0 .131 0 .263-.131.263-.131.13-.131.13-.262.13h-4.587v.787c0 .393.393.524 1.18.524h3.276c.524-.13.524 0 .524.262ZM174.312 24.773c0 .262 0 .524-.131.655-.262.393-.918.656-2.097.656h-3.277c-.262 0-.262-.131-.262-.394v-.262c0-.13.131-.13.262-.13h3.277c.917 0 1.31-.132 1.31-.525v-.393c0-.262-.393-.524-1.31-.524-1.442 0-2.228-.132-2.359-.132-.787-.13-1.311-.524-1.311-1.18v-.261c0-.655.393-1.049 1.049-1.18.262-.13.917-.13 1.703-.13.262 0 .394.13.394.392v.131c0 .263-.132.394-.394.394h-.393c-.917 0-1.442.13-1.442.524v.393c0 .262.132.393.525.393h2.097c.524 0 1.048.131 1.441.262.525.262.787.525.787 1.049v.262h.131ZM182.701 21.36c0 .262-.131.393-.393.393h-2.097v4.063c0 .262-.131.393-.262.393h-.393c-.131 0-.131-.13-.131-.262v-4.063h-2.097c-.262 0-.393-.13-.393-.393v-.262c0-.13.131-.13.262-.13h5.111c.131 0 .262 0 .262.13.131-.13.131 0 .131.131ZM189.121 25.69c0 .262-.131.394-.393.394h-3.407c-.525 0-.918-.131-1.311-.263-.524-.262-.786-.524-.786-1.048v-2.49c0-.262.131-.524.262-.655.393-.394 1.048-.656 1.966-.656h.917c.262 0 .262.131.262.393v.131c0 .263-.131.394-.262.394h-.655c-1.049 0-1.573.13-1.573.524v.917h4.587c.262 0 .393.131.393.393 0 .131 0 .263-.131.263-.131.13-.131.13-.262.13h-4.587v.787c0 .393.393.524 1.18.524h3.276c.393-.13.524 0 .524.262ZM195.673 21.365c0 .263-.131.394-.393.394h-3.277c-.786 0-1.179.13-1.179.524v2.49c0 .393.393.524 1.31.524h3.146c.262 0 .393.131.393.393s-.131.394-.393.394h-4.063c-.262 0-.393-.131-.655-.263-.263-.13-.394-.262-.525-.393-.131-.13-.131-.393-.131-.655v-2.621c0-.262.131-.656.393-.787.263-.13.525-.262.918-.393h4.194c.131 0 .262 0 .262.131v.262ZM202.753 25.817c0 .262-.131.393-.394.393h-.393c-.131 0-.131-.13-.131-.262v-1.835h-4.587v1.835c0 .262-.131.393-.393.393h-.393c-.131 0-.131-.13-.131-.262v-4.456c0-.131 0-.262.131-.262h.393c.262 0 .393.13.393.393v1.835h4.587v-1.835c0-.131 0-.262.131-.262h.393c.263 0 .394.131.394.393v3.932ZM209.699 25.559c0 .393-.131.524-.525.524h-.131c-.131 0-.262-.13-.393-.262l-4.325-3.67v3.67c0 .131 0 .262-.131.262h-.393c-.262 0-.393-.13-.393-.393v-4.587c0-.131.131-.131.262-.262h.262c.262 0 .393.13.655.262l4.325 3.67v-3.539c0-.131.131-.262.262-.262h.394c.262 0 .393.13.393.393v4.194h-.262ZM211.271 25.817c0 .262-.131.393-.393.393h-.393c-.131 0-.131-.13-.131-.262v-4.456c0-.131 0-.262.131-.262h.393c.262 0 .393.131.393.393v4.194ZM218.219 24.773c0 .524-.262.917-.786 1.18.131 0 .262.13.393.262.131 0 .131.13.131.262 0 .13-.131.262-.262.393h-.393l-1.049-.524h-1.835c-1.572 0-2.49-.393-2.49-1.31v-2.753c0-.524.262-.918.787-1.18.262-.13.917-.13 1.572-.13h1.442c.786 0 1.311 0 1.573.13.524.131.786.524.786 1.18v2.49h.131Zm-.917 0v-2.49c0-.262-.262-.393-.656-.524h-3.276c-.393.13-.655.262-.655.524v2.49c0 .262.262.393.655.524h3.276c.525-.13.656-.262.656-.524ZM225.297 24.642c0 .917-.918 1.441-2.753 1.441h-.917c-1.311 0-2.097-.262-2.359-.786-.131-.131-.131-.393-.131-.655v-3.408c0-.262.131-.393.393-.393h.393c.131 0 .262.13.262.262v3.276c0 .263.262.525.656.656.262 0 .524.13 1.048.13h1.311c.393 0 .786 0 1.048-.13.393-.131.655-.262.655-.655v-3.277c0-.131.131-.262.263-.262h.393c.262 0 .393.13.393.393v3.408h-.655Z"/>
  <path fill="#F18515" d="M231.716 25.69c0 .262-.131.394-.393.394h-3.276c-.525 0-.918-.131-1.311-.263-.524-.262-.786-.524-.786-1.048v-2.49c0-.262.131-.524.262-.655.393-.394 1.048-.656 1.966-.656h.917c.262 0 .262.131.262.393v.131c0 .263-.131.394-.262.394h-.655c-1.049 0-1.573.13-1.573.524v.917h4.587c.262 0 .393.131.393.393 0 .131 0 .263-.131.263-.131.13-.131.13-.262.13h-4.587v.787c0 .393.393.524 1.18.524h3.276c.262-.13.393 0 .393.262ZM238.138 24.773c0 .262 0 .524-.132.655-.262.393-.917.656-2.097.656h-3.276c-.262 0-.262-.131-.262-.394v-.262c0-.13.131-.13.262-.13h3.276c.918 0 1.311-.132 1.311-.525v-.393c0-.262-.393-.524-1.311-.524-1.441 0-2.228-.132-2.359-.132-.786-.13-1.31-.524-1.31-1.18v-.261c0-.655.393-1.049 1.048-1.18.262-.13.918-.13 1.704-.13.262 0 .393.13.393.392v.131c0 .263-.131.394-.393.394h-.393c-.918 0-1.442.13-1.442.524v.393c0 .262.131.393.524.393h2.097c.525 0 1.049.131 1.442.262.524.262.786.525.786 1.049v.262h.132ZM247.704 24.773c0 .262 0 .524-.131.655-.262.393-.917.656-2.097.656H242.2c-.262 0-.262-.131-.262-.394v-.262c0-.13.131-.13.262-.13h3.276c.918 0 1.311-.132 1.311-.525v-.393c0-.262-.393-.524-1.311-.524-1.441 0-2.228-.132-2.359-.132-.786-.13-1.31-.524-1.31-1.18v-.261c0-.655.393-1.049 1.048-1.18.262-.13.918-.13 1.704-.13.262 0 .393.13.393.392v.131c0 .263-.131.394-.393.394h-.393c-.918 0-1.442.13-1.442.524v.393c0 .262.131.393.524.393h2.097c.525 0 1.049.131 1.442.262.524.262.786.525.786 1.049v.262h.131ZM254.653 22.938c0 .524-.262.918-.787 1.18-.393.13-.917.262-1.441.262h-3.277v1.573a.282.282 0 0 1-.262.262h-.393c-.262 0-.393-.131-.393-.394v-4.456c0-.262.131-.393.393-.393h3.932c.524 0 .917.131 1.31.262.525.262.787.524.787.918v.786h.131Zm-.918 0v-.655c0-.262-.393-.393-1.179-.393h-3.277v1.834h3.277c.786-.262 1.179-.393 1.179-.786ZM261.075 25.69c0 .261-.132.392-.394.392h-3.407c-.524 0-.918-.13-1.311-.262-.524-.262-.786-.524-.786-1.048v-2.49c0-.263.131-.525.262-.656.393-.393 1.048-.655 1.966-.655h.917c.262 0 .393.131.393.393v.131c0 .262-.131.393-.393.393h-.655c-1.049 0-1.573.131-1.573.525v.917h4.587c.262 0 .394.131.394.393 0 .131 0 .262-.132.262-.131.131-.131.131-.262.131h-4.456v.787c0 .393.393.524 1.18.524h3.276c.394-.131.394 0 .394.262Zm-2.36-6.16s-.262.261-.524.655l-.655.655-.131.13c-.131 0-.131 0-.262-.13l-.131-.131s0-.131.131-.131l1.179-1.18h.131c.131 0 .131 0 .262.131 0-.13 0-.262 0 0ZM267.626 21.365c0 .263-.131.394-.393.394h-3.277c-.786 0-1.179.13-1.179.524v2.49c0 .393.393.524 1.31.524h3.146c.262 0 .393.131.393.393s-.131.394-.393.394h-4.063c-.262 0-.393-.131-.655-.263a1.815 1.815 0 0 1-.525-.393c-.131-.13-.131-.393-.131-.655v-2.621c0-.262.131-.656.394-.787.262-.13.524-.262.917-.393h4.194c.131 0 .262 0 .262.131v.262ZM269.202 25.817c0 .262-.131.393-.394.393h-.393c-.131 0-.131-.13-.131-.262v-4.456c0-.131 0-.262.131-.262h.393c.263 0 .394.131.394.393v4.194ZM276.801 25.69c0 .262 0 .394-.131.394-.131.13-.262.13-.262.13-.131 0-.262-.13-.393-.261l-.787-1.18h-3.932l-.786 1.18c-.131.13-.131.262-.262.262h-.262c-.131-.131-.262-.131-.262-.262v-.132l3.014-4.587c.131-.13.262-.262.524-.262s.393 0 .525.131v.131l3.014 4.456Zm-2.228-1.703-1.442-2.097-1.441 2.097h2.883ZM283.223 25.816c0 .262-.131.393-.393.393h-4.063c-.524-.13-.786-.262-1.048-.393-.262-.262-.393-.524-.393-.917V21.49c0-.262.131-.393.393-.393h.393c.131 0 .262.131.262.262v3.408c0 .262.262.393.655.524h3.932c.131 0 .262 0 .262.131v.393ZM289.644 25.69c0 .262-.131.394-.393.394h-3.408c-.524 0-.917-.131-1.311-.263-.524-.262-.786-.524-.786-1.048v-2.49c0-.262.131-.524.262-.655.393-.394 1.049-.656 1.966-.656h.918c.262 0 .262.131.262.393v.131c0 .263-.131.394-.262.394h-.656c-1.048 0-1.572.13-1.572.524v.917h4.587c.262 0 .393.131.393.393 0 .131 0 .263-.131.263-.131.13-.131.13-.262.13h-4.587v.787c0 .393.393.524 1.179.524h3.277c.393-.13.524 0 .524.262ZM296.068 24.773c0 .262 0 .524-.131.655-.262.393-.917.656-2.097.656h-3.276c-.263 0-.263-.131-.263-.394v-.262c0-.13.132-.13.263-.13h3.276c.918 0 1.311-.132 1.311-.525v-.393c0-.262-.393-.524-1.311-.524-1.442 0-2.228-.132-2.359-.132-.786-.13-1.311-.524-1.311-1.18v-.261c0-.655.394-1.049 1.049-1.18.262-.13.917-.13 1.704-.13.262 0 .393.13.393.392v.131c0 .263-.131.394-.393.394h-.393c-.918 0-1.442.13-1.442.524v.393c0 .262.131.393.524.393h2.097c.524 0 1.049.131 1.442.262.524.262.786.525.786 1.049v.262h.131Z"/>
  <path fill="#EDEDED" d="M130.536 79.946c14.678-.131 26.605-12.058 26.605-26.868h-2.097c.131 13.63-10.878 24.77-24.508 24.77-13.631.132-24.771-10.877-24.771-24.508-.131-13.63 10.878-24.77 24.508-24.77v-2.097c-14.678.13-26.605 12.057-26.605 26.867.131 14.81 12.189 26.737 26.868 26.606Z"/>
  <path fill="#EDEDED" d="m108.389 75.752 1.441-1.442c-11.533-11.402-11.664-30.013-.262-41.547l-1.441-1.441c-12.19 12.32-12.058 32.24.262 44.43Z"/>
  <path fill="#203483" d="M77.721 20.708h11.796l5.898-10.223L89.517.262l-.262.262 5.766 9.961-5.766 9.83H77.72v.393Z"/>
  <path fill="url(#a)" d="m77.588 60.815.393-.131-5.898-10.092-.262.262 5.767 9.96Z"/>
  <path fill="#203483" d="m54.39 20.578 5.898-10.223h11.796l5.898 10.223L72.084 30.8H60.288l-5.897-10.223Zm23.198 0-5.766-9.83H60.419l-5.766 9.83 5.767 9.83h11.402l5.766-9.83Z"/>
  <path fill="#203483" d="M60.288 50.854h11.796l5.898-10.092-.394-.262-5.635 9.96H60.55l-5.766-9.83 5.767-9.96-.263-.13-5.897 10.09 5.897 10.224Z"/>
  <path fill="#203483" d="M77.72 40.761h11.795l5.897-10.223-5.897-10.223H77.719v.394h11.534l5.766 9.83-5.767 9.96H77.85l-5.767-9.96-.262.13 5.898 10.092ZM42.857 40.761l.262-.262-5.766-9.96 5.766-9.83h11.534v-.394H42.857L36.96 30.538l5.898 10.223Z"/>
  <path fill="url(#b)" d="m42.857 20.578.262-.13-5.767-10.093-.262.263 5.767 9.96Z"/>
  <path fill="#203483" d="M37.09 30.408H17.3v.393h19.79v-.393ZM122.938 30.408H95.153v.393h27.785v-.393ZM0 63.83l4.718-8.126h9.306l4.718 8.125-4.718 8.126H4.718L0 63.83Zm18.218 0-4.457-7.733H4.85L.393 63.829l4.456 7.733h8.912l4.457-7.733Z"/>
  <path fill="#203483" d="M45.743 79.815h9.305l4.587-8.125-4.587-7.995-.262.262 4.456 7.733-4.456 7.732h-9.043v.393Z" opacity=".3"/>
  <path fill="#203483" d="m27.392 79.685 4.718-8.126h9.305l4.718 8.126-4.718 8.126H32.11l-4.718-8.126Zm18.217 0-4.456-7.733h-8.912l-4.456 7.733 4.456 7.733h8.912l4.456-7.733Z"/>
  <path fill="#203483" d="m32.018 87.413-4.587 7.945.34.197 4.587-7.945-.34-.197ZM18.352 95.544l.262-.131-4.457-7.864 4.457-7.864-.262-.262-4.719 8.126 4.719 7.995Z" opacity=".3"/>
  <path fill="#203483" d="m14.065 71.694-.34.197 4.594 7.94.34-.196-4.594-7.941ZM13.891 87.42h-9.83v.393h9.83v-.394Z" opacity=".3"/>
  <path fill="#203483" d="m70.117 53.995 4.456 7.733-4.456 7.732h-8.913l-4.456-7.732 4.457-7.733h8.912Zm-9.175-.393-4.718 8.126 4.718 8.126h9.437l4.718-8.126-4.718-8.126h-9.437ZM53.605 44.954l4.325 7.47-4.325 7.47h-8.65l-4.325-7.47 4.325-7.47h8.65Zm-8.912-.394-4.587 7.864 4.587 7.864h9.043l4.588-7.864-4.588-7.864h-9.043ZM88.468 43.12l4.325 7.47-4.325 7.471h-8.65l-4.325-7.47 4.325-7.47h8.65Zm-8.913-.393-4.587 7.864 4.587 7.863H88.6l4.587-7.863-4.587-7.864h-9.044Z"/>
  <path fill="#203483" d="M36.959 10.485 42.857.262h11.795l5.898 10.223-5.898 10.223H42.857l-5.898-10.223Zm23.198 0L54.52.655H43.12l-5.767 9.83 5.636 9.83H54.39l5.767-9.83ZM72.61 70.513l5.898-10.223h11.795l5.898 10.223-5.898 10.223H78.508L72.61 70.513Zm23.198 0-5.636-9.83H78.77l-5.636 9.83 5.636 9.83h11.402l5.636-9.83ZM3.016 10.223 8.913 0H20.71l5.898 10.223-5.898 10.223H8.913L3.016 10.223Zm23.197 0L20.578.393H9.176l-5.767 9.83 5.767 9.96h11.402l5.636-9.96Z" opacity=".3"/>
  <path fill="url(#c)" d="m14.021 55.834.131.262 4.456 7.733h8.912l3.54-6.029.917-1.573.13-.13.132-.263h9.567c.131-.262.262-.393.525-.393.393 0 .655.262.655.655s-.262.656-.655.656c-.263 0-.525-.132-.525-.394H32.37l-4.456 7.733 4.456 7.733h8.912v.393h-9.174l-4.456-7.864h-9.175l-4.587-7.995.131-.524Z" opacity=".5"/>
  <path fill="#203483" d="m53.997 84.797 5.898-10.223H71.69l5.898 10.223L71.69 95.02H59.895l-5.898-10.223Zm23.067 0-5.636-9.83H60.026l-5.636 9.83 5.636 9.83h11.402l5.636-9.83Z"/>
  <path fill="#203483" d="m26.996 23.722-.393.394c-.131.13-.262.13-.262 0-.787-1.049-1.18-2.36-1.049-3.801.131-3.539 3.015-6.291 6.553-6.16h.787c2.883.393 5.242 2.883 5.373 5.767.131 1.572-.393 3.145-1.31 4.325-.131.13-.262.13-.262 0l-.394-.525v-.262c.656-.917 1.049-1.966 1.049-3.145 0-2.884-2.228-5.243-4.98-5.505-3.146-.262-5.767 2.097-5.898 5.243 0 1.048.262 2.228.786 3.145.131.393.131.524 0 .524Z" opacity=".4"/>
  <path fill="#203483" d="m28.569 22.02-.524.524c-.131.13-.263.13-.394 0a5.26 5.26 0 0 1-.393-1.966c.131-2.097 1.573-3.8 3.539-4.194.524-.131 1.18-.131 1.835 0 1.966.524 3.407 2.359 3.276 4.325 0 .655-.262 1.31-.524 1.966-.13.131-.262.131-.393 0l-.262-.393v-.262c.13-.394.262-.787.262-1.18 0-1.31-.786-2.621-2.097-3.145-.655-.263-1.573-.263-2.228-.131a3.107 3.107 0 0 0-2.228 3.014c0 .393 0 .786.262 1.18-.131.13-.131.262-.131.262Z" opacity=".6"/>
  <path fill="#203483" d="M27.917 26.082v-1.835c0-.131 0-.524.393-.655h.393c.131-.263.262-.394.393-.394.263 0 .394 0 .525.131.13-.262.393-.393.655-.262.262 0 .393.131.524.262v-2.49c0-.262.262-.524.656-.524.13 0 .393.131.524.262.13.131.13.262.13.524v4.194c.132-.13.263-.262.394-.393.262-.262.786-.524 1.18-.524.13 0 .262 0 .393.13l.13.132c.132.131.263.524.132.655 0 .131-.131.131-.262.262-.131.132-.393.132-.524.394-.263.393-.918 1.048-1.311 1.441-.131 0-.262.262-.393.262-.262.131-.393.262-.524.394l-.394.262c-.262.13-.786.262-1.31.262s-1.049 0-1.442-.393-.524-.787-.524-1.311c.262-.131.262-.655.262-.786Z"/>
  <path fill="#203483" d="M31.718 19.134c.786 0 1.441.786 1.441 1.572 0 .394-.13.787-.524 1.049V21.1c0-.262-.131-.524-.262-.656-.131-.262-.524-.393-.787-.393-.524 0-.917.393-1.048.787v.917c-.393-.262-.524-.786-.524-1.18.13-.786.917-1.441 1.704-1.441ZM66.056 39.055a5.25 5.25 0 0 1 3.8 1.573c.132.131.263.393.263.524 0 .262-.131.393-.262.655-.131.131-.263.131-.525.131s-.393-.13-.524-.262c-.655-.655-1.704-1.048-2.621-1.048-.918 0-1.966.393-2.621 1.048-.394.262-.918.262-1.18 0a1.002 1.002 0 0 1-.262-.655c0-.262.131-.393.262-.524.918-.918 2.36-1.442 3.67-1.442Z"/>
  <path fill="#203483" d="M60.552 38.267c1.442-1.442 3.408-2.228 5.505-2.228s4.063.786 5.504 2.228c.131.131.262.393.262.524 0 .263-.13.394-.262.656a1.001 1.001 0 0 1-.655.262c-.262 0-.393-.131-.524-.262-1.18-1.18-2.753-1.704-4.325-1.704-1.573 0-3.146.655-4.325 1.704-.393.262-.918.262-1.18 0a1.001 1.001 0 0 1-.262-.656c0-.13.131-.393.262-.524ZM64.35 43.643c0 .917.787 1.573 1.573 1.573.918 0 1.573-.787 1.573-1.573 0-.917-.786-1.573-1.573-1.573-.917 0-1.572.787-1.572 1.573ZM81.257 10.614v.917c0 .393.262.656.655.656h.394c0 .13.13.262.13.393l-.262.262c-.13.131-.13.262-.13.393s0 .262.13.393l.656.656c.13.13.262.13.393.13s.262 0 .393-.13l.262-.263c.131.132.263.132.394.132v.524c0 .393.262.655.655.655h.917c.394 0 .656-.262.656-.655v-.393c.13 0 .262-.131.393-.131l.262.262c.13.13.262.13.393.13s.262 0 .393-.13l.656-.656a.633.633 0 0 0 0-.917l-.263-.262c.132-.131.132-.262.132-.393h.393c.393 0 .655-.262.655-.656v-.917c0-.393-.262-.655-.655-.655h.262-.131c0-.131-.131-.263-.131-.394v-.13l.262-.263a.634.634 0 0 0 0-.917l-.655-.656c-.132-.13-.263-.13-.394-.13-.13 0-.262 0-.393.13l-.262.263h-.131c-.131 0-.262-.131-.393-.131v-.394c0-.393-.262-.655-.656-.655H85.19c-.393 0-.655.262-.655.655v.394c-.131 0-.263.13-.394.13h-.13l-.263-.261c-.13-.132-.262-.132-.393-.132s-.262 0-.393.131l-.655.656c-.132.13-.132.262-.132.393s0 .262.132.393l.262.393v.131c0 .131-.131.263-.131.394h-.525c-.393 0-.655.262-.655.655Zm4.456-1.18c.918 0 1.704.787 1.704 1.704 0 .918-.786 1.704-1.704 1.704-.917 0-1.704-.786-1.704-1.704 0-1.048.787-1.704 1.704-1.704Zm-9.698-2.49V7.6c0 .263.13.394.393.394h.262c0 .13.131.262.131.262l-.262.262c-.131.131-.131.131-.131.262s0 .262.13.262l.394.393c.131.131.131.131.262.131s.262 0 .262-.13l.262-.263c.132 0 .263.131.263.131v.262c0 .263.13.394.393.394h.655c.262 0 .393-.131.393-.394.131 0 .262-.13.262-.13l.263.261c.13.132.13.132.262.132.13 0 .262 0 .262-.132l.917-.524c.131-.13.131-.393 0-.655l-.13-.131v-.393h.261c.262 0 .393-.131.393-.394v-.655c0-.262-.13-.393-.393-.393h-.262c0-.131-.13-.131-.13-.262l.261-.262c.131-.131.131-.393 0-.656l-.393-.393c-.131-.13-.131-.13-.262-.13s-.262 0-.262.13l-.262.262c-.131 0-.131-.13-.263-.13v-.525c0-.262-.13-.393-.393-.393h-.655c-.262 0-.393.131-.393.393v.262c-.131 0-.131.131-.262.131l-.262-.262c-.131-.13-.131-.13-.263-.13-.13 0-.262 0-.262.13l-.393.393c-.13.131-.13.131-.13.262 0 .132 0 .263.13.263l.262.262c0 .13-.13.13-.13.262h-.263c-.786.393-.917.524-.917.786Zm3.014-.917c.655 0 1.18.524 1.18 1.18 0 .655-.525 1.179-1.18 1.179-.655 0-1.18-.524-1.18-1.18 0-.655.525-1.18 1.18-1.18ZM27.127 49.935v-5.898c0-.393-.262-.655-.655-.655h-.524v-.656c0-1.703-1.442-3.014-3.015-3.014-1.31 0-2.49.786-2.883 2.097-.131.262 0 .393.262.524l.262.131c.131.131.262.131.393 0a.282.282 0 0 0 .262-.262c.263-.786.918-1.31 1.835-1.31 1.049 0 1.835.786 1.835 1.834v.656h-5.504c-.394 0-.656.262-.656.655v5.898c0 .393.262.655.656.655h7.339c.131-.131.393-.393.393-.655Zm-3.67-2.097c0 .393-.262.655-.655.655s-.655-.262-.655-.655v-1.835c0-.393.262-.655.655-.655s.655.262.655.655v1.835ZM66.185 19.396a2.35 2.35 0 0 0-2.36 2.36v2.227a2.35 2.35 0 0 0 2.36 2.36 2.35 2.35 0 0 0 2.359-2.36v-2.228a2.35 2.35 0 0 0-2.36-2.359Zm1.966 4.587c0 1.049-.918 1.966-1.966 1.966-1.049 0-1.966-.917-1.966-1.966v-2.228c0-1.048.917-1.966 1.966-1.966 1.048 0 1.966.918 1.966 1.966v2.228ZM67.89 15.466H64.35c-.393 0-.655.262-.655.656v1.834c0 .394.262.656.655.656h3.539c.393 0 .655-.262.655-.655v-1.835c.131-.394-.262-.656-.655-.656Zm.262 2.49a.282.282 0 0 1-.262.263H64.35a.282.282 0 0 1-.262-.263v-1.834c0-.131.131-.262.262-.262h3.539c.13 0 .262.13.262.262v1.834Z"/>
  <path fill="#203483" d="M65.664 16.512a.282.282 0 0 0-.262.262v.787c0 .13.131.262.262.262a.282.282 0 0 0 .262-.262v-.787c0-.262-.13-.262-.262-.262ZM66.579 16.512a.282.282 0 0 0-.263.262v.787c0 .13.132.262.263.262a.282.282 0 0 0 .262-.262v-.787c0-.262-.131-.262-.262-.262ZM67.236 22.282h-.393l.393-1.573c0-.131 0-.131-.13-.262h-.263l-1.835 2.097v.262c0 .13.131.13.131.13h.394l-.263 1.967c0 .13 0 .13.132.262h.13c.132 0 .132 0 .132-.131l1.835-2.49v-.262h-.263Zm-1.441 1.966.13-1.442v-.131l-.13-.131h-.263l1.049-1.18-.262 1.049v.13l.131.132h.393l-1.048 1.573Z"/>
  <path fill="#203483" d="M72.608 20.574h-.262v-.524a.282.282 0 0 0-.262-.262.282.282 0 0 0-.263.262v.524h-.524v-.524a.282.282 0 0 0-.262-.262.282.282 0 0 0-.262.262v.524a.282.282 0 0 0-.262.262v1.049c0 .393.393.786.786.786h.131v1.966c0 .655-.524 1.18-1.18 1.18h-.392V15.463c0-.918-.787-1.704-1.704-1.704h-4.063c-.917 0-1.704.786-1.704 1.704v11.27h-.131c-.131 0-.393.132-.393.394 0 .131.13.393.393.393h9.043c.131 0 .394-.13.394-.393 0-.131-.132-.393-.394-.393h-1.572v-.524h.393c.917 0 1.704-.787 1.704-1.704V22.54h.13c.394 0 .787-.393.787-.787v-1.048s0-.131-.131-.131Zm-9.437 6.16V15.463c0-.525.394-.918.918-.918h4.063c.524 0 .917.393.917.918v11.27h-5.898Zm9.175-4.98c0 .262-.131.393-.393.393h-.656c-.262 0-.393-.131-.393-.393v-.787h1.442v.787ZM12.319 60.81c-.262 0-.394.132-.394.263 0 .13.132.262.263.262h.13c.656 0 1.311.524 1.311 1.31 0 .656-.524 1.311-1.31 1.311H4.455a.282.282 0 0 0-.262.262c0 .131.13.262.262.262h7.864c1.048 0 1.966-.917 1.966-1.966 0-.917-.918-1.704-1.966-1.704ZM12.056 65.401H4.06a.282.282 0 0 0-.262.263c0 .13.13.262.262.262h7.995c.393 0 .786.393.786.786s-.393.786-.786.786c-.262 0-.524-.262-.524-.524 0-.131.13-.131.13-.131h.132a.282.282 0 0 0 .262-.262.282.282 0 0 0-.262-.262h-.132c-.393 0-.786.393-.786.786 0 .655.524 1.18 1.18 1.18.786 0 1.441-.656 1.441-1.442 0-.786-.655-1.442-1.441-1.442Z"/>
  <path fill="#203483" d="M4.849 63.04h4.98c1.048 0 1.835-.786 1.835-1.834 0-1.049-.787-1.835-1.835-1.835-.786 0-1.31.655-1.31 1.31v.262c0 .656.524 1.18 1.31 1.18.655 0 1.048-.393 1.048-.917v-.263a.282.282 0 0 0-.262-.262.282.282 0 0 0-.262.262v.263c0 .262-.262.262-.393.262-.393 0-.655-.132-.655-.656v-.262c0-.393.262-.655.655-.655.655 0 1.31.524 1.31 1.18 0 .655-.524 1.179-1.31 1.179H4.849a.282.282 0 0 0-.263.262c0 .393.131.524.263.524ZM69.33 65.66h-6.947a.282.282 0 0 1-.262-.262v-4.063h-1.048a.282.282 0 0 1-.263-.262c0-.131 0-.262.132-.393l4.849-3.932c.13-.131.262-.131.393 0l1.442 1.18v-.132c0-.13.13-.262.262-.262h1.048c.131 0 .262.131.262.262v1.442l1.704 1.442c.131.13.131.262.131.393a.282.282 0 0 1-.262.262h-1.048v4.063c-.131.13-.262.262-.394.262Zm-6.685-.655h6.291v-4.063c0-.131.131-.262.262-.262h.525l-1.18-.918c-.13 0-.13-.13-.13-.262v-1.31h-.394v.524c0 .13-.131.262-.131.262h-.262l-1.835-1.442-3.932 3.277h.524c.131 0 .262.13.262.262v3.932Z"/>
  <path fill="#203483" d="M65.793 63.17c-.524 0-1.048-.525-1.048-1.049 0-.524.524-1.048 1.048-1.048s1.049.524 1.049 1.048-.525 1.049-1.049 1.049Zm0-1.704c-.393 0-.655.262-.655.655s.262.656.655.656.655-.263.655-.656-.262-.655-.655-.655ZM65.796 60.945c-.131 0-.131-.132-.131-.132v-.655c0-.131.13-.131.13-.131.132 0 .132.131.132.131v.655s0 .132-.131.132ZM64.875 61.338c-.131 0-.131 0 0 0l-.656-.525c-.13-.13-.13-.13 0-.262.132-.131.132-.131.263 0l.524.524s0 .131-.131.263ZM64.481 62.254h-.655c-.131 0-.131-.131-.131-.131 0-.131.13-.131.13-.131h.656c.132 0 .132.13.132.13 0 .132-.132.132-.132.132ZM64.35 63.697c-.262-.132-.262-.263-.131-.263l.524-.524c.131-.131.131-.131.263 0 .13.131.13.131 0 .262l-.656.525ZM65.796 64.35c-.131 0-.131-.131-.131-.131v-.656c0-.13.13-.13.13-.13.132 0 .132.13.132.13v.656s0 .13-.131.13ZM67.233 63.698c-.13 0-.13 0 0 0l-.655-.525c-.131-.13-.131-.13 0-.262.13-.13.262 0 .262 0l.524.525s0 .13-.13.262ZM67.76 62.254h-.656c-.131 0-.131-.131-.131-.131 0-.131.13-.131.13-.131h.656c.131 0 .131.13.131.13.132.132 0 .132-.13.132ZM66.709 61.338c-.262-.132-.262-.263-.131-.263l.524-.524c.131-.131.131-.131.262 0 .132.131.132.131 0 .262l-.655.525c.131 0 .131 0 0 0Z"/>
  <path stroke="#203483" stroke-linecap="round" stroke-linejoin="round" stroke-miterlimit="10" stroke-width=".531" d="M84.14 46.394v8.519M85.188 47.313l-1.049 1.049-1.18-1.049M82.96 54.13l1.179-1.048 1.049 1.048M87.678 48.49l-7.209 4.456M87.548 49.805l-1.442-.262.393-1.573M80.6 51.506l1.442.393-.393 1.573M87.813 52.816l-7.47-4.194M86.5 53.34l-.394-1.441 1.442-.393M81.649 48.102l.393 1.441-1.442.393"/>
  <path stroke="#203483" stroke-linecap="round" stroke-linejoin="round" stroke-miterlimit="10" stroke-width=".776" d="M24.377 91.482h-1.835a3.245 3.245 0 0 1-3.277-3.277 3.245 3.245 0 0 1 3.277-3.276h1.834a3.245 3.245 0 0 1 3.277 3.276c0 1.704-1.442 3.277-3.276 3.277Z"/>
  <path fill="#203483" d="M21.364 92.397h-.655c-.262 0-.524-.262-.524-.524v-.393c0-.131.13-.394.393-.394h1.18c.13 0 .393.132.393.394v.262c-.263.393-.525.655-.787.655ZM26.213 92.397h-.655c-.262 0-.524-.262-.524-.524v-.393c0-.131.13-.394.393-.394h1.18c.13 0 .393.132.393.394v.262c-.131.393-.394.655-.787.655Z"/>
  <path stroke="#203483" stroke-linecap="round" stroke-linejoin="round" stroke-miterlimit="10" stroke-width=".466" d="M26.082 87.155h-.262c-.393 0-.655-.262-.655-.656 0-.393.262-.655.655-.655h.262c.394 0 .656.262.656.655 0 .394-.393.656-.656.656ZM25.165 88.334h1.573M25.165 89.384h1.573M25.165 90.303h1.573M22.28 90.3a2.228 2.228 0 1 0 0-4.456 2.228 2.228 0 0 0 0 4.456Z"/>
  <path stroke="#203483" stroke-linecap="round" stroke-linejoin="round" stroke-miterlimit="10" stroke-width=".291" d="M22.28 88.469a.393.393 0 1 0 0-.787.393.393 0 0 0 0 .787Z"/>
  <path stroke="#203483" stroke-linecap="round" stroke-linejoin="round" stroke-miterlimit="10" stroke-width=".291" d="m22.017 87.81-.262-.392c-.131-.131-.131-.262-.131-.262 0-.263.262-.525.524-.525h.131c.393 0 .656.131.918.394.13.13 0 .262-.131.262h-.131c-.131 0-.262 0-.393.13l-.263.263M22.673 87.944h.525c.13 0 .262 0 .262.131.262.132.262.525.13.656v.262c-.261.262-.523.393-.917.393-.13 0-.262-.13-.13-.262l.13-.13c.131-.132.131-.263.131-.394v-.262M22.15 88.336l-.262.393c0 .131-.131.131-.262.262-.262.131-.524 0-.656-.262v-.131c-.13-.394-.13-.656 0-1.049.132-.131.263-.131.394 0v.131c0 .131.13.262.393.262l.262.131"/>
  <path fill="#203483" d="M37.876 85.189h-2.228c-.918 0-1.704-.786-1.704-1.704v-2.359c0-.262.13-.393.393-.393h4.718c.262 0 .393.131.393.393v2.36c.132.917-.655 1.703-1.572 1.703Zm-3.146-3.8v1.965c0 .524.393.918.918.918h2.228a.896.896 0 0 0 .917-.918v-1.966H34.73Z"/>
  <path fill="#203483" d="M36.696 87.68c-.262 0-.393-.13-.393-.392v-2.49c0-.263.131-.394.393-.394.263 0 .394.131.394.394v2.49c.13.13-.132.393-.394.393ZM35.257 81.392c-.262 0-.393-.13-.393-.393v-2.49c0-.262.13-.393.393-.393.262 0 .393.13.393.393v2.49c0 .262-.13.393-.393.393ZM38.272 81.392c-.262 0-.393-.13-.393-.393v-2.49c0-.262.131-.393.393-.393s.393.13.393.393v2.49c0 .262-.262.393-.393.393ZM66.315 92.266c-1.049 0-2.752-.131-2.752-.524v-7.733c0-1.573 1.31-2.752 2.752-2.752 1.573 0 2.752 1.31 2.752 2.752v7.733c0 .524-1.704.524-2.752.524Zm-2.49-.524c.13.13 1.048.262 2.49.262 1.442 0 2.359-.131 2.49-.262V84.14c0-1.442-1.18-2.49-2.49-2.49-1.442 0-2.49 1.18-2.49 2.49v7.602Z"/>
  <path fill="#203483" d="M66.838 81.654c-.394-.13-.787-.13-1.05 0h-.13v-.917c0-.131.13-.131.13-.131h1.05c.13 0 .13.13.13.13v.787l-.13.131Zm-1.05-.786v.393h.787v-.524h-.786v.13ZM60.285 89.122c-.262 0-1.18-.525-1.442-.656-1.442-.786-1.31-.917-1.31-1.048l3.67-4.85c.13-.13.392-.261.523-.13l.787.393c.13.13.262.262.13.524l-2.358 5.636c.13 0 0 .13 0 .13Zm-2.36-1.704c.132.131.525.393 1.05.655.523.262.916.525 1.179.656l2.359-5.505v-.131l-.787-.393h-.13l-3.67 4.718Z"/>
  <path fill="#203483" d="m62.514 83.093-.918-.525-.13-.13v-.132l.261-.393c0-.131.132-.131.263 0l.786.524.131.131v.131l-.262.394h-.13Zm-.524-.656.524.262v-.13l-.524-.132ZM71.43 81.128c-.132 0-.525 0-.656-.131-.131-.132-.655-.132-.918-.132h-4.063c-.13 0-.393-.13-.393-.262v-.786c0-.131 0-.262.131-.262l3.67-2.097s.787-.262 1.18-.262c.262 0 .393.13.393.393 0 .131 0 .262-.131.262-.131.131-.393.131-.656.262-.13 0-.13.131-.262.131h-.13c-.263.131-.525.262-.656.394l-.786.393c-.131 0-.131.13-.262.13-.263.132-.394.263-.394.394v.262c.131 0 .525-.131.787-.262s.524-.131.655-.131h.524c.131 0 1.442.262 1.835.524s.787.655.656.918c0 .13-.132.262-.525.262Zm-2.098-.656h.393c.525 0 .918 0 1.18.131 0 0 .262.132.524.132h.262c0-.132-.262-.263-.524-.394-.393-.262-1.573-.393-1.704-.393h-.524c-.131 0-.262.131-.524.131-.393.131-.656.262-.918.262-.13 0-.262 0-.262-.13a.398.398 0 0 1 0-.525c.131-.262.393-.393.656-.524l.13-.131c.263-.131.525-.263.787-.525.262-.13.524-.262.655-.393h.131c.131 0 .263-.13.394-.13.13 0 .262-.132.524-.263 0 0 0-.131-.131-.131h-.131c-.263 0-.656.131-.918.262l-3.538 2.097v.787l3.538-.263Z"/>
  <path fill="#203483" d="M65.528 80.603h-1.704c-.13 0-.13-.131-.13-.131v-.655c0-.131.13-.131.13-.131h1.704c.131 0 .131.13.131.13v.656c0 .131-.13.131-.13.131Zm-1.573-.262h1.442v-.393h-1.442v.393Z"/>
  <path fill="#203483" d="M62.385 82.569c-.131 0-.131-.131-.131-.263l1.442-2.359c0-.13.13-.13.262 0 .13 0 .13.132 0 .263l-1.442 2.359c0-.131-.131 0-.131 0ZM67.89 89.254h-3.277c-.131 0-.131-.131-.131-.131v-4.194c0-.131.131-.131.131-.131h3.276c.132 0 .132.13.132.13v4.195c0 .13 0 .13-.132.13Zm-3.146-.262h3.014V85.06h-3.014v3.932Z"/>
  <path fill="#F18515" d="M77.195 40.63c0 .263.263.525.525.525s.524-.262.524-.525c0-.262-.262-.524-.524-.524-.263 0-.525.262-.525.524ZM88.859 40.63c0 .263.262.525.524.525.263 0 .525-.262.525-.525 0-.262-.263-.524-.525-.524-.393 0-.524.262-.524.524ZM77.195 60.811c0 .262.263.524.525.524s.524-.262.524-.524-.262-.525-.524-.525c-.263-.13-.525.132-.525.525ZM71.427 30.538c0 .262.262.524.525.524.262 0 .524-.262.524-.524 0-.263-.262-.525-.524-.525-.263 0-.525.262-.525.525ZM71.427 50.722c0 .262.262.525.525.525.262 0 .524-.263.524-.525s-.262-.524-.524-.524c-.263 0-.525.13-.525.524ZM59.764 30.538c0 .262.262.524.525.524.262 0 .524-.262.524-.524 0-.263-.262-.525-.524-.525-.263 0-.525.262-.525.525ZM59.764 10.487c0 .262.262.524.525.524.262 0 .524-.262.524-.524s-.262-.525-.524-.525c-.263-.13-.525.131-.525.525ZM71.427 10.487c0 .262.262.524.525.524.262 0 .524-.262.524-.524s-.262-.525-.524-.525c-.263-.13-.525.131-.525.525ZM36.564 30.538c0 .262.262.524.524.524.263 0 .525-.262.525-.524 0-.263-.262-.525-.525-.525-.262 0-.524.262-.524.525ZM16.775 30.538c0 .262.262.524.524.524s.525-.262.525-.524c0-.263-.263-.525-.525-.525s-.524.262-.524.525ZM94.627 30.538c0 .262.263.524.525.524s.524-.262.524-.524c0-.263-.262-.525-.524-.525s-.525.262-.525.525ZM77.195 20.579c0 .262.263.524.525.524s.524-.262.524-.524-.262-.524-.524-.524c-.263-.131-.525.13-.525.524ZM88.859 20.578c0 .263.262.525.524.525.263 0 .525-.262.525-.525 0-.262-.263-.524-.525-.524-.393-.131-.524.131-.524.524ZM42.464 20.578c0 .263.263.525.525.525s.524-.262.524-.525c0-.262-.262-.524-.524-.524-.262-.131-.525.131-.525.524ZM36.564 10.487c0 .262.262.524.524.524.263 0 .525-.262.525-.524s-.262-.525-.525-.525c-.262-.13-.524.131-.524.525ZM53.997 20.578c0 .263.262.525.525.525.262 0 .524-.262.524-.525 0-.262-.262-.524-.524-.524-.263-.131-.525.131-.525.524ZM59.764 50.719c0 .262.262.524.525.524.262 0 .524-.262.524-.524 0-.263-.262-.525-.524-.525-.263-.13-.525.131-.525.525ZM53.997 40.63c0 .263.262.525.525.525.262 0 .524-.262.524-.525 0-.262-.262-.524-.524-.524-.263 0-.525.262-.525.524ZM42.464 40.63c0 .263.263.525.525.525s.524-.262.524-.525c0-.262-.262-.524-.524-.524s-.525.262-.525.524ZM94.627 10.487c0 .262.263.524.525.524s.524-.262.524-.524-.262-.525-.524-.525c-.262-.13-.525.131-.525.525ZM88.859.524c0 .263.262.525.524.525.263 0 .525-.262.525-.525 0-.262-.263-.524-.525-.524-.393 0-.524.262-.524.524ZM58.977 71.69c0 .394.262.656.656.656.393 0 .655-.263.655-.656s-.262-.655-.655-.655c-.394 0-.656.393-.656.655ZM54.391 63.83c0 .393.262.655.656.655.393 0 .655-.262.655-.655s-.262-.656-.655-.656c-.394.131-.656.394-.656.656ZM40.499 71.69c0 .394.262.656.655.656.394 0 .656-.263.656-.656s-.262-.655-.656-.655c-.393.13-.655.393-.655.655ZM13.239 71.69c0 .392.262.655.655.655.394 0 .656-.263.656-.656s-.262-.655-.656-.655c-.393.13-.655.393-.655.655ZM26.998 95.677c0 .393.263.655.656.655s.655-.262.655-.655-.262-.656-.655-.656-.655.263-.655.656ZM40.631 87.55c0 .393.263.656.656.656s.655-.263.655-.656-.262-.656-.655-.656-.656.263-.656.656ZM4.062 87.55c0 .393.262.656.655.656s.656-.263.656-.656-.263-.656-.656-.656-.655.263-.655.656ZM13.239 87.55c0 .393.262.656.655.656.394 0 .656-.263.656-.656s-.262-.656-.656-.656c-.393 0-.655.263-.655.656Z"/>
  <path fill="#203483" d="m100.92 50.434-8.126.048v.131l8.127-.048-.001-.131ZM105.767 58.144l-17.3.097v.13l17.301-.096-.001-.131ZM123.591 70.706l-27.523.135v.13l27.523-.134v-.131Z"/>
  <path fill="#F18515" d="M93.84 50.59c0-.656-.525-1.049-1.049-1.049-.655 0-1.048.524-1.048 1.049 0 .655.524 1.048 1.048 1.048.656.131 1.049-.393 1.049-1.048ZM89.516 58.191c0-.655-.524-1.048-1.049-1.048-.655 0-1.048.524-1.048 1.048 0 .655.524 1.049 1.048 1.049.525.13 1.049-.394 1.049-1.049ZM97.118 71.036c0-.655-.525-1.048-1.049-1.048-.655 0-1.049.524-1.049 1.048 0 .656.525 1.049 1.049 1.049.524 0 1.049-.524 1.049-1.049Z"/>
  <path fill="#203483" d="M141.414 34.205c-3.407-1.966-7.208-2.883-10.878-2.883-7.733 0-15.203 3.932-19.266 11.14-6.029 10.485-2.359 23.984 8.257 29.882 10.616 6.029 24.115 2.36 30.144-8.257 6.029-10.485 2.359-23.853-8.257-29.882Z"/>
  <path fill="#F18515" d="M152.555 53.866v-1.442c-8.519.262-20.184 0-26.737-3.014 0 0 5.505 5.635 26.737 4.456ZM126.475 54.39s5.373 5.374 25.426 4.587l.393-1.572c-8.519.262-19.528 0-25.819-3.015Z"/>
  <path fill="#fff" d="M126.081 52.031s5.505 5.505 26.212 4.456c.131-.524.131-1.048.131-1.572-8.388.393-19.79 0-26.343-2.884Z"/>
  <path fill="#F18515" d="M300 57.537H151.245v1.442H300v-1.442ZM151.245 52.425v1.442H300v-1.442H151.245Z"/>
  <path fill="#203483" d="M223.328 47.707h24.901s4.588.393 4.719 2.36v5.766s-.918 3.407-5.767 3.539h-23.853V47.707Zm38.27 19.922V51.115s1.835-3.408 7.077-3.408h15.99s5.242.917 5.373 3.277v16.513s1.442 2.884-8.257 3.932h-12.32s-7.47 0-7.863-3.8Zm6.291-25.033c-5.374.524-8.388 2.228-10.092 3.932-3.014-3.67-10.092-3.932-10.092-3.932h-28.702c-1.442 0-1.704 1.441-1.704 1.441v17.825c-1.704-1.18-4.325-2.228-8.257-2.622h-15.465s-4.718-.393-4.849-2.359c-.132-1.965 0-6.028 0-6.028s.917-3.277 7.863-3.277h4.981s.917-.131.917-1.31v-1.704s-.131-1.835-1.704-1.835h-44.299c-.786 0-1.31.524-1.31 1.31v2.49c0 .656.655 1.311 1.31 1.311H158.321l12.058.131s.131 25.688.131 26.999c0 1.18 1.311 1.31 1.311 1.31h3.538c1.049 0 1.049-1.703 1.049-1.703V47.576h6.815c-.524.917-.655 1.704-.655 2.097v8.781s1.835 5.374 8.912 5.374c7.077 0 16.514.524 16.514.524s6.684-.393 6.684 3.276c0 3.932-6.815 3.54-6.815 3.54h-23.854s-1.31.261-1.31 2.62c0 2.49 2.097 2.228 2.097 2.228h36.959c1.311-.13 1.442-1.31 1.442-1.31l.131-10.485 22.411-.393c4.85 0 7.995-.918 9.961-2.228v6.815c1.835 7.077 11.271 7.47 11.271 7.47h17.825c12.319-1.048 11.271-8.126 11.271-8.126V50.854c-.393-8.126-11.533-8.126-11.533-8.126h-16.645v-.131Z"/>
  <path fill="#fff" d="M299.475 55.047H151.507v1.442h147.968v-1.442Z"/>
  <defs>
    <linearGradient id="a" x1="116.189" x2="48.091" y1="14.402" y2="82.5" gradientUnits="userSpaceOnUse">
      <stop stop-color="#BEC9D5"/>
      <stop offset=".954" stop-color="#FDFEFE"/>
      <stop offset=".999" stop-color="#fff"/>
    </linearGradient>
    <linearGradient id="b" x1="78.686" x2="10.592" y1="-23.096" y2="44.997" gradientUnits="userSpaceOnUse">
      <stop stop-color="#BEC9D5"/>
      <stop offset=".954" stop-color="#FDFEFE"/>
      <stop offset=".999" stop-color="#fff"/>
    </linearGradient>
    <linearGradient id="c" x1="42.816" x2="13.785" y1="63.636" y2="63.636" gradientUnits="userSpaceOnUse">
      <stop stop-color="#BEC9D5"/>
      <stop offset=".954" stop-color="#203483"/>
      <stop offset=".999" stop-color="#fff"/>
    </linearGradient>
  </defs>
</svg>
